<?xml version="1.0" encoding="UTF-8" standalone="no"?>
<!DOCTYPE svg PUBLIC "-//W3C//DTD SVG 1.1//EN" "http://www.w3.org/Graphics/SVG/1.1/DTD/svg11.dtd">
<svg xmlns="http://www.w3.org/2000/svg" version="1.1" viewBox="0 0 400 100">
<path fill="#009cef" d="M 58.29,54.75 Q 57.88,56.53 58.50,58.26 A 1.34,1.34 78.0 0 1 57.34,60.05 Q 52.63,60.39 47.37,60.28 Q 47.07,60.27 45.19,60.63 Q 43.96,60.86 42.89,60.07 A 0.46,0.40 31.7 0 0 42.24,60.18 L 41.96,60.75 Q 36.75,56.12 29.96,55.39 Q 25.96,54.95 24.05,55.50 Q 20.41,56.53 20.63,61.51 Q 20.72,63.63 20.79,65.75 Q 20.91,66.26 20.75,66.50 Q 20.25,67.19 20.28,66.19 L 20.50,58.48 Q 20.55,56.98 19.39,57.83 Q 17.54,59.20 15.00,58.75 Q 11.71,58.16 4.75,59.18 A 1.42,1.10 -68.2 0 0 3.95,59.65 Q 3.16,60.56 3.10,59.00 Q 2.89,53.91 2.21,59.00 Q 1.30,49.67 2.00,44.75 Q 2.45,41.58 5.07,40.13 Q 6.61,39.28 10.08,39.12 Q 17.94,38.75 22.00,39.00 Q 27.23,39.32 31.30,37.62 Q 35.08,36.04 36.94,32.81 Q 38.76,29.66 37.87,25.96 Q 36.44,20.05 29.71,19.15 Q 27.10,18.80 26.31,18.79 Q 24.28,18.77 22.96,20.03 Q 21.86,21.09 21.38,23.83 Q 20.79,27.19 20.75,28.00 Q 20.40,35.21 13.68,35.71 Q 11.72,35.86 11.33,35.87 Q 10.42,35.89 8.94,35.81 Q 2.22,35.47 2.46,29.00 Q 2.83,19.18 4.44,9.49 Q 5.18,5.07 8.48,3.17 Q 10.50,2.00 15.24,1.82 Q 23.61,1.52 33.75,2.25 Q 39.24,2.64 43.79,4.73 Q 48.45,6.88 51.67,11.02 Q 58.15,19.34 55.26,30.16 Q 54.71,32.22 52.56,36.48 Q 50.90,39.77 49.83,42.81 Q 48.87,45.55 51.14,47.35 Q 55.42,50.76 58.29,54.75 Z"/>
<path fill="#0193ef" d="M 237.99,76.50 Q 229.90,69.94 227.94,59.31 Q 226.67,52.45 227.72,46.19 Q 231.28,24.97 251.76,18.67 Q 253.79,18.04 254.65,14.22 A 1.73,1.73 -81.7 0 1 256.44,12.88 Q 263.81,13.29 271.10,15.89 Q 279.36,18.83 283.75,23.39 Q 289.27,29.11 290.75,37.75 Q 294.04,56.92 282.71,69.77 Q 276.48,76.83 267.73,80.01 Q 258.71,83.30 249.00,81.75 Q 243.35,80.85 237.99,76.50 ZM 251.91,65.60 Q 256.11,68.96 261.50,67.76 Q 267.54,66.41 270.50,61.00 Q 273.90,54.78 273.25,45.75 Q 272.74,38.73 268.64,34.47 Q 266.53,32.28 263.71,31.54 Q 260.70,30.75 257.76,31.49 Q 253.98,32.46 251.18,35.88 Q 248.68,38.94 247.44,43.19 Q 245.28,50.53 246.77,57.30 Q 247.89,62.39 251.91,65.60 Z"/>
<path fill="#0193ef" d="M 86.59,17.69 A 1.12,1.04 34.5 0 1 86.73,18.32 L 82.04,77.05 A 2.24,2.10 85.3 0 1 80.49,79.00 L 66.75,82.83 Q 64.13,83.56 64.33,80.76 L 68.65,21.85 A 1.37,1.35 -5.9 0 1 69.64,20.65 Q 76.80,18.62 84.66,16.99 Q 84.73,16.98 85.19,16.80 Q 85.94,16.51 86.59,17.69 Z"/>
<path fill="#0193ef" d="M 104.78,33.55 L 91.74,33.51 A 1.03,0.99 10.1 0 1 90.77,32.17 L 95.55,19.53 A 0.82,0.78 8.2 0 1 96.26,19.03 L 141.76,16.75 A 1.15,1.15 8.6 0 1 142.90,18.29 L 137.87,31.96 A 2.28,2.27 -79.8 0 1 135.74,33.45 L 124.21,33.50 A 0.72,0.72 2.6 0 0 123.49,34.15 L 119.51,76.88 A 1.13,1.03 84.1 0 1 118.82,77.81 L 104.59,82.76 Q 102.27,83.57 102.46,81.04 L 105.93,34.82 A 1.18,1.16 -87.7 0 0 104.78,33.55 Z"/>
<path fill="#0193ef" d="M 169.94,31.65 L 162.49,32.92 A 1.33,1.12 -28.8 0 1 161.57,32.74 Q 159.94,31.60 161.56,30.20 Q 162.45,29.43 162.52,29.36 Q 170.61,21.37 174.81,18.56 Q 177.07,17.05 181.99,16.77 Q 190.25,16.28 198.42,17.68 Q 210.68,19.79 217.94,28.81 Q 221.61,33.38 222.25,40.25 Q 223.64,55.33 214.96,65.85 Q 210.02,71.85 201.66,75.88 Q 194.05,79.56 185.48,80.88 Q 174.34,82.60 163.82,82.22 Q 161.47,82.13 162.52,80.03 Q 164.39,76.28 166.26,72.78 Q 167.51,70.45 167.76,67.91 Q 169.55,50.02 170.41,32.06 A 0.40,0.39 -3.5 0 0 169.94,31.65 ZM 197.12,32.11 Q 193.90,29.58 189.06,30.07 A 1.11,1.09 -0.4 0 0 188.06,31.06 L 184.85,68.44 A 0.46,0.45 2.8 0 0 185.31,68.94 Q 198.39,68.91 202.20,56.49 Q 205.47,45.86 200.40,36.08 Q 199.18,33.73 197.12,32.11 Z"/>
<path fill="#0193ef" d="M 357.69,32.32 L 351.99,32.00 A 0.83,0.82 -72.5 0 1 351.35,30.74 L 358.58,18.83 A 1.32,1.24 15.2 0 1 359.70,18.23 Q 378.80,18.62 397.05,16.75 Q 399.80,16.46 398.83,18.99 L 394.78,29.57 A 2.33,2.12 8.1 0 1 392.76,30.94 L 376.68,31.66 A 0.60,0.55 1.0 0 0 376.11,32.17 L 375.20,42.07 A 0.48,0.47 2.1 0 0 375.69,42.58 L 387.16,42.33 Q 389.78,42.28 388.77,44.54 L 384.17,54.86 A 1.87,1.85 10.8 0 1 382.53,55.96 L 374.40,56.26 A 0.95,0.93 1.3 0 0 373.49,57.11 L 372.48,68.76 A 0.68,0.67 -87.3 0 0 373.15,69.50 L 393.27,69.50 Q 395.33,69.50 394.27,71.22 L 388.78,80.08 Q 387.42,82.27 384.62,82.25 Q 367.82,82.13 351.65,80.30 A 0.93,0.90 17.8 0 1 350.93,78.95 L 354.75,72.27 Q 355.38,71.17 355.45,70.11 L 356.36,57.79 A 1.12,1.11 4.6 0 0 355.33,56.59 Q 350.05,56.16 352.36,53.32 Q 353.39,52.05 353.43,52.00 Q 354.86,49.99 356.68,47.52 A 2.68,2.26 -28.8 0 0 357.18,46.22 L 358.17,32.80 A 0.51,0.45 3.6 0 0 357.69,32.32 Z"/>
<path fill="#0193ef" d="M 318.80,37.53 L 297.53,37.26 A 1.39,1.35 11.0 0 1 296.24,35.40 Q 298.40,30.10 300.81,24.42 Q 302.05,21.50 303.87,20.54 Q 305.86,19.49 308.30,19.65 Q 310.10,19.76 310.20,19.76 Q 325.87,19.99 341.53,20.70 Q 341.61,20.71 343.47,20.66 Q 346.59,20.57 344.75,24.00 Q 334.77,42.65 324.81,61.33 A 0.79,0.77 -76.2 0 0 325.50,62.50 L 343.88,61.94 Q 346.32,61.86 345.25,64.00 Q 342.01,70.47 338.79,76.48 Q 337.67,78.58 335.97,79.27 Q 333.99,80.07 331.75,80.06 Q 316.13,80.00 300.48,80.00 Q 295.91,80.00 298.16,76.04 L 319.39,38.60 A 0.72,0.70 -74.5 0 0 318.80,37.53 Z"/>
<path fill="#0182ef" d="M 58.29,54.75 Q 63.11,62.34 62.75,72.75 Q 62.17,89.39 46.71,94.64 Q 41.76,96.33 34.25,96.50 Q 29.25,96.61 27.49,93.06 Q 26.88,91.84 26.16,88.39 Q 25.57,85.55 25.75,83.50 Q 26.06,80.07 29.83,79.75 Q 33.72,79.43 37.27,78.05 Q 41.22,76.52 43.33,73.73 Q 47.85,67.75 41.96,60.75 L 42.24,60.18 A 0.46,0.40 31.7 0 1 42.89,60.07 Q 43.96,60.86 45.19,60.63 Q 47.07,60.27 47.37,60.28 Q 52.63,60.39 57.34,60.05 A 1.34,1.34 78.0 0 0 58.50,58.26 Q 57.88,56.53 58.29,54.75 Z"/>
<path fill="#0182ef" d="M 20.79,65.75 Q 21.60,73.96 22.47,82.15 Q 22.48,82.24 23.30,87.31 Q 23.79,90.34 23.51,93.38 Q 23.35,95.12 21.70,95.68 Q 19.35,96.49 16.91,96.58 Q 14.09,96.69 12.08,96.46 Q 6.53,95.82 5.31,89.94 Q 2.94,78.41 2.21,59.00 Q 2.89,53.91 3.10,59.00 Q 3.16,60.56 3.95,59.65 A 1.42,1.10 -68.2 0 1 4.75,59.18 Q 11.71,58.16 15.00,58.75 Q 17.54,59.20 19.39,57.83 Q 20.55,56.98 20.50,58.48 L 20.28,66.19 Q 20.25,67.19 20.75,66.50 Q 20.91,66.26 20.79,65.75 Z"/>
</svg>
