<?xml version="1.0" encoding="UTF-8" standalone="no"?>
<!DOCTYPE svg PUBLIC "-//W3C//DTD SVG 1.1//EN" "http://www.w3.org/Graphics/SVG/1.1/DTD/svg11.dtd">
<svg xmlns="http://www.w3.org/2000/svg" version="1.1" viewBox="0.00 0.00 512.00 512.00">
<g stroke-width="2.00" fill="none" stroke-linecap="butt">
<path stroke="#0379c3" vector-effect="non-scaling-stroke" d="
  M 314.34 83.94
  L 331.39 103.42"
/>
<path stroke="#0379c3" vector-effect="non-scaling-stroke" d="
  M 331.55 103.44
  Q 331.46 103.59 331.41 103.76
  Q 331.27 104.19 331.50 104.57
  Q 338.53 116.65 341.88 129.93"
/>
<path stroke="#009bef" vector-effect="non-scaling-stroke" d="
  M 341.88 129.93
  Q 341.67 135.15 342.92 140.14
  C 343.29 141.64 342.82 143.05 342.91 144.58
  C 343.16 149.39 342.52 154.10 342.88 158.90
  Q 342.99 160.38 342.47 161.85
  Q 342.32 162.27 341.89 162.33
  Q 336.03 163.13 331.75 163.13
  Q 305.38 163.11 279.00 163.24
  Q 277.57 163.24 276.16 163.16
  Q 275.72 163.13 275.30 163.00
  Q 274.41 162.73 273.45 162.95
  Q 273.13 163.03 273.13 162.70
  L 273.13 162.27
  Q 273.13 161.70 272.72 161.30
  Q 272.17 160.76 272.01 161.06"
/>
<path stroke="#0379c3" vector-effect="non-scaling-stroke" d="
  M 208.28 135.65
  Q 206.26 136.51 205.37 138.63
  C 200.43 150.43 201.56 164.36 198.52 176.75
  Q 197.59 180.53 194.08 188.11"
/>
<path stroke="#0370c3" vector-effect="non-scaling-stroke" d="
  M 320.73 241.28
  Q 320.42 242.28 321.46 243.30
  Q 324.32 246.12 328.26 249.56
  A 0.32 0.28 -12.5 0 0 328.41 249.64
  Q 329.14 249.79 328.30 248.54"
/>
<path stroke="#0370c3" vector-effect="non-scaling-stroke" d="
  M 343.80 262.46
  Q 344.46 265.53 346.89 267.69
  C 347.45 268.20 347.57 268.75 348.11 269.23
  Q 348.89 269.92 349.11 270.25
  Q 354.79 278.78 356.47 281.76
  Q 366.41 299.38 369.32 319.23"
/>
<path stroke="#0189f0" vector-effect="non-scaling-stroke" d="
  M 369.32 319.23
  L 369.28 326.58
  Q 369.28 327.07 368.99 327.47
  Q 368.52 328.10 368.55 328.30
  A 1.62 1.62 0.0 0 1 366.95 330.18
  Q 361.28 330.17 356.05 330.48
  C 355.30 330.53 354.99 331.10 354.05 330.99
  C 350.85 330.62 347.45 331.27 344.65 331.23
  Q 339.66 331.15 334.68 331.39
  C 332.96 331.47 330.95 330.97 329.00 331.15
  C 324.78 331.53 321.01 331.65 316.52 331.38
  C 313.52 331.19 311.21 331.93 308.24 330.48
  Q 307.36 330.05 306.67 330.85
  Q 306.32 331.24 305.81 331.15
  Q 304.14 330.87 302.52 331.23
  Q 302.07 331.33 301.78 330.97
  Q 301.27 330.30 301.44 329.43
  Q 301.49 329.20 301.43 329.07
  Q 301.34 328.90 301.18 328.78
  Q 300.69 328.44 300.75 329.03
  Q 301.33 335.79 300.38 331.42"
/>
<path stroke="#0370c3" vector-effect="non-scaling-stroke" d="
  M 203.79 286.19
  Q 198.58 295.10 199.65 305.26
  Q 200.47 313.04 200.38 315.33"
/>
<path stroke="#0189f0" vector-effect="non-scaling-stroke" d="
  M 200.38 315.33
  L 199.45 331.96
  A 1.34 1.33 32.1 0 1 196.95 332.53
  C 195.45 329.83 191.56 330.01 188.96 330.44
  Q 186.47 330.86 184.48 330.83
  C 181.63 330.79 178.75 331.44 176.17 331.40
  Q 165.59 331.28 155.01 331.11
  C 153.16 331.08 150.55 331.88 149.00 331.66
  Q 144.01 330.96 138.96 331.16
  Q 138.48 331.18 138.07 330.93
  C 135.96 329.67 133.42 330.89 131.55 331.81
  Q 131.07 332.04 130.61 331.78
  Q 129.77 331.30 129.44 332.42
  A 0.05 0.02 50.8 0 1 129.38 332.39
  L 129.24 332.13
  Q 129.12 331.90 129.00 332.13
  Q 128.91 332.33 128.81 332.56
  A 0.04 0.04 0.0 0 1 128.73 332.56
  Q 128.51 331.69 127.97 331.97"
/>
<path stroke="#0370c3" vector-effect="non-scaling-stroke" d="
  M 320.13 240.48
  Q 319.86 240.94 319.50 240.49
  C 316.48 236.68 315.95 230.47 317.61 225.87
  C 321.91 213.95 328.91 202.55 333.64 192.97
  C 343.33 173.37 346.66 151.43 341.88 129.93"
/>
<path stroke="#0467c4" vector-effect="non-scaling-stroke" d="
  M 351.21 409.39
  Q 353.29 405.63 355.44 402.01
  C 368.35 380.28 372.72 353.69 370.63 328.75
  Q 370.23 324.02 369.32 319.23"
/>
<path stroke="#0467c4" vector-effect="non-scaling-stroke" d="
  M 212.22 433.54
  C 212.13 429.42 212.52 425.48 212.03 421.50
  Q 210.37 408.20 208.18 394.98
  C 207.77 392.51 207.66 389.59 207.33 387.50
  Q 205.77 377.63 204.98 371.02
  C 204.12 363.84 203.75 356.60 202.84 349.40
  C 202.43 346.18 202.46 342.43 202.11 339.75
  C 201.00 331.23 201.20 323.13 200.38 315.33"
/>
</g>
<path fill="#00a4ee" d="
  M 314.34 83.94
  L 331.39 103.42
  Q 331.47 103.43 331.55 103.44
  Q 331.46 103.59 331.41 103.76
  Q 331.27 104.19 331.50 104.57
  Q 338.53 116.65 341.88 129.93
  Q 341.67 135.15 342.92 140.14
  C 343.29 141.64 342.82 143.05 342.91 144.58
  C 343.16 149.39 342.52 154.10 342.88 158.90
  Q 342.99 160.38 342.47 161.85
  Q 342.32 162.27 341.89 162.33
  Q 336.03 163.13 331.75 163.13
  Q 305.38 163.11 279.00 163.24
  Q 277.57 163.24 276.16 163.16
  Q 275.72 163.13 275.30 163.00
  Q 274.41 162.73 273.45 162.95
  Q 273.13 163.03 273.13 162.70
  L 273.13 162.27
  Q 273.13 161.70 272.72 161.30
  Q 272.17 160.76 272.01 161.06
  C 267.35 136.51 244.47 128.55 222.25 129.42
  C 216.36 129.65 211.96 131.10 208.28 135.65
  Q 206.26 136.51 205.37 138.63
  C 200.43 150.43 201.56 164.36 198.52 176.75
  Q 197.59 180.53 194.08 188.11
  Q 192.96 189.82 190.89 191.39
  C 179.86 199.77 164.65 200.05 151.25 199.05
  C 126.89 197.23 125.54 180.26 127.01 160.49
  Q 129.15 131.54 133.68 99.25
  C 135.77 84.33 140.18 68.73 155.47 62.98
  C 161.41 60.74 168.04 60.15 175.27 59.98
  C 209.46 59.19 240.05 58.31 269.61 63.69
  C 286.57 66.78 301.17 72.75 314.34 83.94
  Z"
/>
<path fill="#064d97" d="
  M 314.34 83.94
  Q 324.82 92.27 331.39 103.42
  L 314.34 83.94
  Z"
/>
<path fill="#064d97" d="
  M 331.55 103.44
  Q 332.00 104.01 332.37 104.63
  C 349.27 132.61 349.25 165.88 334.01 194.62
  C 328.53 204.95 322.20 215.54 318.69 226.71
  Q 316.33 234.20 320.13 240.48
  Q 319.86 240.94 319.50 240.49
  C 316.48 236.68 315.95 230.47 317.61 225.87
  C 321.91 213.95 328.91 202.55 333.64 192.97
  C 343.33 173.37 346.66 151.43 341.88 129.93
  Q 338.53 116.65 331.50 104.57
  Q 331.27 104.19 331.41 103.76
  Q 331.46 103.59 331.55 103.44
  Z"
/>
<path fill="#0092ef" d="
  M 341.88 129.93
  C 346.66 151.43 343.33 173.37 333.64 192.97
  C 328.91 202.55 321.91 213.95 317.61 225.87
  C 315.95 230.47 316.48 236.68 319.50 240.49
  Q 319.86 240.94 320.13 240.48
  Q 320.55 240.85 320.73 241.28
  Q 320.42 242.28 321.46 243.30
  Q 324.32 246.12 328.26 249.56
  A 0.32 0.28 -12.5 0 0 328.41 249.64
  Q 329.14 249.79 328.30 248.54
  Q 336.69 254.87 343.80 262.46
  Q 344.46 265.53 346.89 267.69
  C 347.45 268.20 347.57 268.75 348.11 269.23
  Q 348.89 269.92 349.11 270.25
  Q 354.79 278.78 356.47 281.76
  Q 366.41 299.38 369.32 319.23
  L 369.28 326.58
  Q 369.28 327.07 368.99 327.47
  Q 368.52 328.10 368.55 328.30
  A 1.62 1.62 0.0 0 1 366.95 330.18
  Q 361.28 330.17 356.05 330.48
  C 355.30 330.53 354.99 331.10 354.05 330.99
  C 350.85 330.62 347.45 331.27 344.65 331.23
  Q 339.66 331.15 334.68 331.39
  C 332.96 331.47 330.95 330.97 329.00 331.15
  C 324.78 331.53 321.01 331.65 316.52 331.38
  C 313.52 331.19 311.21 331.93 308.24 330.48
  Q 307.36 330.05 306.67 330.85
  Q 306.32 331.24 305.81 331.15
  Q 304.14 330.87 302.52 331.23
  Q 302.07 331.33 301.78 330.97
  Q 301.27 330.30 301.44 329.43
  Q 301.49 329.20 301.43 329.07
  Q 301.34 328.90 301.18 328.78
  Q 300.69 328.44 300.75 329.03
  Q 301.33 335.79 300.38 331.42
  C 299.52 290.35 250.31 273.98 217.01 277.94
  Q 208.55 278.94 203.79 286.19
  Q 198.58 295.10 199.65 305.26
  Q 200.47 313.04 200.38 315.33
  L 199.45 331.96
  A 1.34 1.33 32.1 0 1 196.95 332.53
  C 195.45 329.83 191.56 330.01 188.96 330.44
  Q 186.47 330.86 184.48 330.83
  C 181.63 330.79 178.75 331.44 176.17 331.40
  Q 165.59 331.28 155.01 331.11
  C 153.16 331.08 150.55 331.88 149.00 331.66
  Q 144.01 330.96 138.96 331.16
  Q 138.48 331.18 138.07 330.93
  C 135.96 329.67 133.42 330.89 131.55 331.81
  Q 131.07 332.04 130.61 331.78
  Q 129.77 331.30 129.44 332.42
  A 0.05 0.02 50.8 0 1 129.38 332.39
  L 129.24 332.13
  Q 129.12 331.90 129.00 332.13
  Q 128.91 332.33 128.81 332.56
  A 0.04 0.04 0.0 0 1 128.73 332.56
  Q 128.51 331.69 127.97 331.97
  Q 124.81 293.42 124.50 247.00
  C 124.34 223.35 132.81 212.20 157.25 211.93
  Q 187.00 211.60 216.74 211.23
  C 244.23 210.90 276.38 193.54 272.01 161.06
  Q 272.17 160.76 272.72 161.30
  Q 273.13 161.70 273.13 162.27
  L 273.13 162.70
  Q 273.13 163.03 273.45 162.95
  Q 274.41 162.73 275.30 163.00
  Q 275.72 163.13 276.16 163.16
  Q 277.57 163.24 279.00 163.24
  Q 305.38 163.11 331.75 163.13
  Q 336.03 163.13 341.89 162.33
  Q 342.32 162.27 342.47 161.85
  Q 342.99 160.38 342.88 158.90
  C 342.52 154.10 343.16 149.39 342.91 144.58
  C 342.82 143.05 343.29 141.64 342.92 140.14
  Q 341.67 135.15 341.88 129.93
  Z"
/>
<path fill="#064d97" d="
  M 208.28 135.65
  C 203.27 143.84 202.13 154.85 201.94 164.25
  Q 201.88 167.54 199.78 176.74
  Q 198.32 183.11 194.08 188.11
  Q 197.59 180.53 198.52 176.75
  C 201.56 164.36 200.43 150.43 205.37 138.63
  Q 206.26 136.51 208.28 135.65
  Z"
/>
<path fill="#064d97" d="
  M 320.73 241.28
  L 328.30 248.54
  Q 329.14 249.79 328.41 249.64
  A 0.32 0.28 -12.5 0 1 328.26 249.56
  Q 324.32 246.12 321.46 243.30
  Q 320.42 242.28 320.73 241.28
  Z"
/>
<path fill="#064d97" d="
  M 343.80 262.46
  C 373.88 296.65 379.71 345.66 363.95 387.44
  Q 359.63 398.90 351.21 409.39
  Q 353.29 405.63 355.44 402.01
  C 368.35 380.28 372.72 353.69 370.63 328.75
  Q 370.23 324.02 369.32 319.23
  Q 366.41 299.38 356.47 281.76
  Q 354.79 278.78 349.11 270.25
  Q 348.89 269.92 348.11 269.23
  C 347.57 268.75 347.45 268.20 346.89 267.69
  Q 344.46 265.53 343.80 262.46
  Z"
/>
<path fill="#064d97" d="
  M 203.79 286.19
  Q 200.98 293.63 200.81 301.00
  Q 200.64 308.03 201.22 316.76
  Q 204.53 366.16 212.45 415.04
  C 213.32 420.41 214.17 428.42 212.22 433.54
  C 212.13 429.42 212.52 425.48 212.03 421.50
  Q 210.37 408.20 208.18 394.98
  C 207.77 392.51 207.66 389.59 207.33 387.50
  Q 205.77 377.63 204.98 371.02
  C 204.12 363.84 203.75 356.60 202.84 349.40
  C 202.43 346.18 202.46 342.43 202.11 339.75
  C 201.00 331.23 201.20 323.13 200.38 315.33
  Q 200.47 313.04 199.65 305.26
  Q 198.58 295.10 203.79 286.19
  Z"
/>
<path fill="#0180f0" d="
  M 200.38 315.33
  C 201.20 323.13 201.00 331.23 202.11 339.75
  C 202.46 342.43 202.43 346.18 202.84 349.40
  C 203.75 356.60 204.12 363.84 204.98 371.02
  Q 205.77 377.63 207.33 387.50
  C 207.66 389.59 207.77 392.51 208.18 394.98
  Q 210.37 408.20 212.03 421.50
  C 212.52 425.48 212.13 429.42 212.22 433.54
  C 207.64 449.40 174.18 446.57 162.51 444.33
  C 146.35 441.25 140.20 429.32 137.80 414.51
  Q 131.14 373.45 127.97 331.97
  Q 128.51 331.69 128.73 332.56
  A 0.04 0.04 0.0 0 0 128.81 332.56
  Q 128.91 332.33 129.00 332.13
  Q 129.12 331.90 129.24 332.13
  L 129.38 332.39
  A 0.05 0.02 50.8 0 0 129.44 332.42
  Q 129.77 331.30 130.61 331.78
  Q 131.07 332.04 131.55 331.81
  C 133.42 330.89 135.96 329.67 138.07 330.93
  Q 138.48 331.18 138.96 331.16
  Q 144.01 330.96 149.00 331.66
  C 150.55 331.88 153.16 331.08 155.01 331.11
  Q 165.59 331.28 176.17 331.40
  C 178.75 331.44 181.63 330.79 184.48 330.83
  Q 186.47 330.86 188.96 330.44
  C 191.56 330.01 195.45 329.83 196.95 332.53
  A 1.34 1.33 32.1 0 0 199.45 331.96
  L 200.38 315.33
  Z"
/>
<path fill="#0180f0" d="
  M 369.32 319.23
  Q 370.23 324.02 370.63 328.75
  C 372.72 353.69 368.35 380.28 355.44 402.01
  Q 353.29 405.63 351.21 409.39
  C 332.15 433.82 299.20 443.25 269.67 445.27
  C 252.62 446.43 233.48 448.48 227.01 428.19
  Q 222.15 412.98 221.32 397.75
  C 220.23 377.79 234.62 376.13 249.99 374.69
  C 274.10 372.43 299.23 358.70 300.38 331.42
  Q 301.33 335.79 300.75 329.03
  Q 300.69 328.44 301.18 328.78
  Q 301.34 328.90 301.43 329.07
  Q 301.49 329.20 301.44 329.43
  Q 301.27 330.30 301.78 330.97
  Q 302.07 331.33 302.52 331.23
  Q 304.14 330.87 305.81 331.15
  Q 306.32 331.24 306.67 330.85
  Q 307.36 330.05 308.24 330.48
  C 311.21 331.93 313.52 331.19 316.52 331.38
  C 321.01 331.65 324.78 331.53 329.00 331.15
  C 330.95 330.97 332.96 331.47 334.68 331.39
  Q 339.66 331.15 344.65 331.23
  C 347.45 331.27 350.85 330.62 354.05 330.99
  C 354.99 331.10 355.30 330.53 356.05 330.48
  Q 361.28 330.17 366.95 330.18
  A 1.62 1.62 0.0 0 0 368.55 328.30
  Q 368.52 328.10 368.99 327.47
  Q 369.28 327.07 369.28 326.58
  L 369.32 319.23
  Z"
/>
</svg>
